<svg xmlns="http://www.w3.org/2000/svg" viewBox="0 0 640 880" role="img" aria-label="Resume Preview">
  <defs>
    <linearGradient id="bg" x1="0" y1="0" x2="1" y2="1">
      <stop offset="0%" stop-color="#F8FAFC"/>
      <stop offset="100%" stop-color="#E2E8F0"/>
    </linearGradient>
    <linearGradient id="accent" x1="0" y1="0" x2="1" y2="0">
      <stop offset="0%" stop-color="#F97316"/>
      <stop offset="100%" stop-color="#8B5CF6"/>
    </linearGradient>
  </defs>
  <rect width="640" height="880" rx="24" fill="url(#bg)"/>
  <rect x="32" y="32" width="576" height="816" rx="18" fill="#FFFFFF" stroke="#E2E8F0"/>
  <rect x="64" y="72" width="320" height="18" rx="9" fill="url(#accent)"/>
  <rect x="64" y="108" width="240" height="12" rx="6" fill="#CBD5E1"/>
  <rect x="64" y="150" width="512" height="10" rx="5" fill="#E2E8F0"/>
  <rect x="64" y="176" width="480" height="10" rx="5" fill="#E2E8F0"/>
  <rect x="64" y="202" width="440" height="10" rx="5" fill="#E2E8F0"/>

  <rect x="64" y="248" width="200" height="12" rx="6" fill="#F97316" opacity="0.8"/>
  <rect x="64" y="272" width="512" height="10" rx="5" fill="#E2E8F0"/>
  <rect x="64" y="296" width="500" height="10" rx="5" fill="#E2E8F0"/>
  <rect x="64" y="320" width="470" height="10" rx="5" fill="#E2E8F0"/>

  <rect x="64" y="372" width="200" height="12" rx="6" fill="#8B5CF6" opacity="0.8"/>
  <rect x="64" y="396" width="520" height="10" rx="5" fill="#E2E8F0"/>
  <rect x="64" y="420" width="480" height="10" rx="5" fill="#E2E8F0"/>
  <rect x="64" y="444" width="450" height="10" rx="5" fill="#E2E8F0"/>

  <rect x="64" y="496" width="200" height="12" rx="6" fill="#10B981" opacity="0.8"/>
  <rect x="64" y="520" width="520" height="10" rx="5" fill="#E2E8F0"/>
  <rect x="64" y="544" width="470" height="10" rx="5" fill="#E2E8F0"/>
  <rect x="64" y="568" width="430" height="10" rx="5" fill="#E2E8F0"/>

  <rect x="64" y="620" width="200" height="12" rx="6" fill="#F59E0B" opacity="0.8"/>
  <rect x="64" y="644" width="520" height="10" rx="5" fill="#E2E8F0"/>
  <rect x="64" y="668" width="460" height="10" rx="5" fill="#E2E8F0"/>
  <rect x="64" y="692" width="420" height="10" rx="5" fill="#E2E8F0"/>
</svg>
